<?xml version="1.0" standalone="no"?>
<!DOCTYPE svg PUBLIC "-//W3C//DTD SVG 20010904//EN"
 "http://www.w3.org/TR/2001/REC-SVG-20010904/DTD/svg10.dtd">
<svg version="1.0" xmlns="http://www.w3.org/2000/svg"
 width="387.000000pt" height="387.000000pt" viewBox="0 0 387.000000 387.000000"
 preserveAspectRatio="xMidYMid meet">

<g transform="translate(0.000000,387.000000) scale(0.100000,-0.100000)"
fill="#000000" stroke="none">
<path d="M1840 3569 c0 -5 -5 -7 -10 -4 -6 4 -16 2 -23 -4 -7 -5 -32 -8 -55
-7 -34 3 -46 -1 -58 -18 -8 -11 -15 -20 -17 -18 -1 2 -15 -2 -31 -8 -23 -8
-31 -8 -38 2 -6 10 -8 9 -8 -2 0 -15 -40 -57 -40 -42 0 4 -7 -2 -15 -12 -15
-20 -15 -20 -15 0 -1 18 -1 18 -11 1 -12 -21 -56 -41 -81 -38 -11 1 -20 -7
-24 -24 -4 -16 -12 -24 -19 -21 -16 6 -27 -18 -19 -39 5 -11 2 -13 -10 -9 -9
3 -16 1 -16 -5 0 -7 -11 -24 -25 -39 -14 -15 -25 -32 -25 -39 0 -6 -3 -13 -7
-15 -17 -7 -52 -87 -73 -163 -12 -44 -28 -105 -37 -135 -8 -32 -20 -155 -28
-299 -8 -134 -15 -245 -17 -247 -2 -2 -30 10 -62 26 -236 119 -445 -145 -318
-402 64 -130 188 -233 447 -370 140 -74 154 -91 162 -200 7 -95 -18 -159 -87
-221 -77 -69 -535 -292 -928 -451 -114 -46 -238 -97 -277 -113 l-70 -30 -3
-311 -2 -312 960 0 960 0 2 177 3 178 60 11 c226 40 393 164 487 359 49 103
69 199 69 342 l0 115 22 -16 c63 -45 605 -311 760 -372 67 -26 217 -90 332
-141 169 -74 211 -90 213 -77 2 9 0 20 -5 25 -10 10 -352 161 -440 195 -249
95 -782 357 -850 418 -72 65 -97 128 -90 224 8 108 22 126 159 199 167 89 310
185 363 246 25 28 62 85 82 125 34 67 37 81 37 160 1 78 -2 92 -29 141 -67
122 -198 163 -321 101 -32 -16 -60 -30 -61 -30 -1 0 -10 160 -19 340 -5 114
-12 152 -54 305 -28 100 -67 197 -82 203 -4 2 -8 10 -8 18 0 8 -11 25 -25 38
-14 13 -25 29 -25 36 0 7 -6 10 -13 7 -10 -4 -12 3 -9 25 4 27 2 29 -16 24
-15 -5 -21 -1 -26 18 -4 18 -11 24 -27 21 -11 -2 -22 2 -25 10 -3 7 -12 11
-19 9 -7 -3 -19 5 -26 18 -12 22 -12 22 -20 3 -4 -11 -8 -14 -8 -8 -1 7 -14
19 -31 28 -16 9 -30 23 -30 33 0 14 -2 14 -9 3 -7 -11 -17 -10 -55 8 -25 13
-46 26 -46 30 0 5 -19 7 -42 5 -23 -1 -49 2 -56 9 -18 14 -202 21 -202 6z
m484 -858 c189 -53 289 -144 352 -320 15 -42 29 -78 30 -80 2 -2 20 10 41 26
51 40 60 44 102 54 78 18 176 -35 212 -115 12 -27 18 -64 18 -106 0 -189 -137
-333 -477 -504 -50 -25 -102 -58 -116 -72 -57 -62 -67 -207 -23 -343 123 -375
-92 -765 -461 -838 -76 -15 -88 -15 -169 1 -142 28 -275 107 -352 209 -138
183 -175 416 -99 631 50 141 42 272 -21 339 -14 15 -78 55 -141 88 -188 99
-305 183 -367 264 -63 83 -83 137 -83 226 0 99 36 166 111 205 55 28 105 28
162 0 29 -14 64 -37 77 -51 l24 -25 27 80 c72 213 196 306 469 354 14 2 156 3
315 1 263 -2 297 -4 369 -24z"/>
<path d="M1471 2420 c20 -12 281 -71 287 -66 8 8 -84 55 -128 65 -59 14 -181
14 -159 1z"/>
<path d="M2199 2416 c-42 -11 -109 -50 -109 -63 0 -3 10 -2 23 1 12 4 72 17
134 31 62 13 120 28 130 34 26 15 -119 13 -178 -3z"/>
<path d="M975 2291 c-82 -21 -130 -65 -129 -119 2 -47 49 -142 108 -214 45
-56 183 -158 213 -158 19 0 16 9 -53 131 -37 67 -59 96 -69 93 -21 -8 -51 12
-75 51 -21 33 -21 37 -6 60 13 20 25 25 55 25 72 0 111 -51 191 -250 24 -58
58 -128 77 -157 46 -69 210 -226 314 -298 46 -32 85 -60 87 -61 2 -1 3 -31 1
-66 -4 -115 3 -264 14 -274 4 -4 7 -21 7 -38 0 -20 7 -36 20 -44 19 -11 19
-10 14 41 -9 93 -14 356 -7 360 5 2 32 -1 61 -6 56 -9 57 -10 54 -102 -5 -181
2 -380 15 -415 5 -14 8 -40 7 -59 -2 -29 0 -32 11 -20 17 17 17 40 11 352 l-5
237 48 0 c27 0 63 3 80 6 l31 7 -1 -149 c-2 -222 1 -323 12 -329 5 -4 9 -26 9
-51 0 -25 4 -43 9 -39 5 3 12 -3 14 -12 8 -30 6 128 -2 207 -4 41 -6 79 -3 84
3 5 4 73 3 152 l-2 144 27 11 c16 5 50 26 76 45 26 18 50 34 52 34 2 0 4 -87
5 -192 1 -106 4 -239 8 -296 5 -56 4 -103 0 -105 -5 -1 -3 -16 4 -32 12 -31
17 -60 20 -130 2 -22 4 -32 7 -22 2 9 8 17 14 17 8 0 9 30 3 98 -7 90 -11 256
-15 564 l-2 128 103 97 c111 106 161 174 204 280 52 126 86 197 112 231 46 61
118 73 150 26 14 -22 13 -26 -7 -59 -24 -38 -51 -57 -76 -53 -12 2 -34 -28
-75 -102 -32 -58 -59 -108 -59 -112 -1 -33 159 70 218 140 60 72 114 177 116
224 1 35 -4 45 -34 70 -45 37 -127 61 -177 52 -78 -14 -84 -21 -165 -201 -41
-92 -84 -188 -94 -213 -23 -55 -158 -190 -238 -239 -31 -18 -87 -45 -124 -60
-62 -24 -78 -26 -232 -26 -154 0 -170 2 -232 26 -102 40 -172 86 -262 174 -77
75 -85 87 -128 190 -85 202 -146 321 -171 332 -35 16 -107 23 -142 14z"/>
<path d="M1415 2280 c4 -6 37 -26 75 -45 38 -19 71 -39 75 -45 11 -17 82 -50
109 -50 33 0 58 38 54 82 -5 54 -46 68 -196 68 -82 0 -121 -3 -117 -10z"/>
<path d="M2136 2269 c-34 -27 -36 -77 -3 -107 34 -32 58 -27 131 23 36 24 88
56 115 70 28 14 51 28 51 30 0 3 -60 5 -134 5 -120 0 -136 -2 -160 -21z"/>
<path d="M1803 1970 c-29 -17 -33 -25 -33 -60 0 -36 6 -47 49 -90 78 -78 118
-79 194 -5 71 69 76 129 13 159 -51 24 -181 22 -223 -4z"/>
</g>
</svg>
